<?xml version="1.0" encoding="UTF-8"?>
<svg xmlns="http://www.w3.org/2000/svg" width="1000" height="600">
	<rect width="1000" height="600" fill="#ffce00"/>
	<rect width="1000" height="400" fill="#d00"/>
	<rect width="1000" height="200" fill="#000"/>
	<path d="M 598.91094,165.05789 C 598.91094,165.05789 598.91094,296.82668 598.91094,336.71998 C 598.91094,390.81772 548.43988,434.94214 486.48436,434.94214 C 424.52886,434.94214 374.05778,390.81772 374.05778,336.71998 C 374.05778,296.82668 374.05778,165.05789 374.05778,165.05789 z" fill="#ffce00" stroke="#000" stroke-width="2"/>
	<path d="M 469.55992,211.29786 C 467.44438,216.73784 465.32882,223.38674 466.5377,231.54672 C 462.3066,230.64006 451.72884,229.43118 447.1955,231.84894 C 445.6844,226.71118 440.54662,218.8534 436.91996,215.52896 C 447.1955,207.06674 447.1955,204.34674 441.7555,201.32452 C 436.3155,198.00008 428.15552,195.28009 422.4133,194.97786 C 416.67108,194.67564 414.85774,195.88453 411.83552,198.30231 C 409.11552,201.0223 402.46664,204.64896 395.51554,204.64896 C 396.11998,232.4534 394.00442,261.4667 390.67998,279.2978 C 389.4711,284.13336 388.56444,291.08446 389.16888,295.01334 C 394.00442,293.50224 397.02664,290.1778 401.8622,288.36446 C 403.97776,276.5778 406.69776,258.7467 408.20886,247.26228 C 409.71998,248.77338 412.13774,251.49338 413.34664,252.09782 C 413.95108,266.30226 403.07108,324.93332 402.16442,336.71998 C 406.99998,336.41776 412.13774,331.5822 416.06664,331.27998 C 418.48442,311.93778 425.73774,272.04448 425.43552,258.7467 C 426.94662,259.04892 429.06218,260.25782 430.5733,260.56004 C 430.27106,283.22668 422.4133,319.1911 422.11108,335.81332 C 426.03996,335.20888 429.06218,332.18666 433.89774,331.5822 C 436.61774,314.65778 441.7555,275.0667 442.66218,264.79114 C 444.17328,265.39558 446.89328,266.30226 448.40438,266.9067 C 448.40438,278.69336 443.87106,304.38222 444.77772,314.65778 C 447.79994,312.84444 451.72884,312.24 454.1466,309.82222 C 457.16882,297.73334 456.56438,277.18224 458.98216,270.83558 C 460.19104,271.1378 461.70216,272.04448 462.91104,272.64892 C 463.21326,279.2978 461.39994,295.01334 462.00438,300.75556 C 465.0266,300.15112 466.5377,298.03556 471.07104,297.1289 C 471.07104,293.20002 471.07104,284.7378 471.9777,281.71558 C 474.99992,287.15558 477.11548,292.29334 477.11548,300.15112 C 465.32882,307.40444 461.09772,320.70222 443.87106,321.30666 C 445.98662,325.84 450.82216,328.55998 457.16882,330.0711 C 458.0755,334.90666 458.37772,341.85776 460.49326,345.1822 C 465.63104,340.95108 467.14216,328.86222 476.51104,328.86222 C 474.99992,334.90666 474.6977,337.92888 474.09326,340.34664 C 472.88438,346.99552 467.44438,347.29776 464.42216,352.43552 C 469.55992,356.96886 474.6977,357.27108 478.62658,356.06218 C 474.99992,365.12886 461.09772,366.63996 455.05328,364.82662 C 453.54216,366.63996 453.84438,369.35996 455.05328,370.56884 C 448.40438,372.6844 442.35994,382.05328 451.4266,389.00438 C 452.03106,384.16884 454.44882,381.44884 458.67994,381.75106 C 458.98216,383.26216 459.5866,385.37772 459.28438,387.19106 C 467.44438,387.49328 479.23104,379.03106 481.6488,375.10218 C 484.67102,380.8444 478.02214,388.09772 472.58214,392.0266 C 475.60436,394.44438 478.02214,395.35104 481.6488,395.04882 C 479.83548,403.51104 488.2977,404.71994 485.5777,413.18214 C 490.41324,409.25326 493.73768,400.1866 491.0177,395.04882 C 494.64436,395.35104 497.66658,394.44438 500.6888,392.0266 C 495.2488,388.09772 488.59992,380.8444 491.62214,375.10218 C 494.03992,379.03106 505.82656,387.49328 513.68434,387.19106 C 513.38212,385.37772 513.98656,383.26216 514.591,381.75106 C 518.82212,381.44884 521.2399,384.16884 521.84434,389.00438 C 530.911,382.05328 524.86656,372.6844 518.21768,370.56884 C 519.42656,369.35996 519.42656,366.63996 518.21768,364.82662 C 512.17324,366.63996 498.27102,365.12886 494.64436,356.06218 C 498.57324,357.27108 503.71102,356.96886 508.84878,352.43552 C 505.82656,347.29776 500.38658,346.99552 498.87546,340.34664 C 498.57324,337.92888 498.27102,334.90666 496.7599,328.86222 C 506.1288,328.86222 507.33768,340.95108 512.77768,345.1822 C 514.89322,341.85776 515.19546,334.90666 516.10212,330.0711 C 522.44878,328.55998 527.28434,325.84 529.09766,321.30666 C 512.17324,320.70222 507.6399,307.40444 495.85324,300.15112 C 496.15546,292.29334 498.27102,287.15558 501.29324,281.71558 C 502.1999,284.7378 501.89768,293.20002 501.89768,297.1289 C 506.43102,298.03556 508.24434,300.15112 511.26656,300.75556 C 511.871,295.01334 510.05768,279.2978 510.3599,272.64892 C 511.56878,272.04448 513.0799,271.1378 514.28878,270.83558 C 516.70656,277.18224 516.10212,297.73334 519.12434,309.82222 C 521.54212,312.24 525.471,312.84444 528.49322,314.65778 C 529.39988,304.38222 524.86656,278.69336 524.86656,266.9067 C 526.37766,266.30226 528.79544,265.39558 530.60878,264.79114 C 531.51544,275.0667 536.65322,314.65778 539.3732,331.5822 C 543.90654,332.18666 547.23098,335.20888 550.85764,335.81332 C 550.55542,319.1911 542.99988,283.22668 542.69766,260.56004 C 543.90654,260.25782 546.32432,259.04892 547.83542,258.7467 C 547.23098,272.04448 554.48432,311.93778 557.2043,331.27998 C 561.1332,331.5822 565.96874,336.41776 571.10652,336.71998 C 570.19986,324.93332 559.31986,266.30226 559.9243,252.09782 C 561.1332,251.49338 563.55098,248.77338 565.06208,247.26228 C 566.5732,258.7467 569.29318,276.5778 571.40874,288.36446 C 576.2443,290.1778 579.26652,293.50224 584.10206,295.01334 C 584.70652,291.08446 583.49762,284.13336 582.59096,279.2978 C 579.26652,261.4667 577.15096,232.4534 577.45318,204.64896 C 570.8043,204.64896 564.15542,201.0223 561.43542,198.30231 C 558.4132,195.88453 556.59986,194.67564 550.85764,194.97786 C 545.11542,195.28009 536.95544,198.00008 531.51544,201.32452 C 526.07544,204.34674 526.07544,207.06674 536.351,215.52896 C 532.72432,218.8534 527.58656,226.71118 526.07544,231.84894 C 521.54212,229.43118 510.66212,230.64006 506.73324,231.54672 C 507.94212,223.38674 505.22212,202.83564 501.59546,192.86231 C 502.80434,191.95564 504.61768,191.04898 505.82656,188.32898 C 507.03546,185.9112 504.31546,187.42231 501.29324,186.21343 C 494.03992,183.79565 481.95104,175.33343 473.48882,175.33343 C 472.88438,177.14677 471.37326,179.56454 468.35104,182.28454 C 465.32882,184.70232 472.58214,191.95564 477.71992,198.90675 C 483.15992,205.55564 471.07104,204.9512 469.55992,211.29786 z" fill="#000" stroke="#000"/>
	<g fill="#d00" stroke="#000">
		<path d="M 457.77328,334.3022 C 457.47104,332.7911 457.16882,331.5822 457.16882,330.0711 C 454.75106,329.76888 452.93772,328.86222 451.12438,327.95554 C 443.87106,334.3022 433.29328,347.59998 426.6444,350.92442 C 425.1333,351.52886 422.71552,351.22664 419.99552,348.80886 C 417.57774,346.39108 408.20886,342.76442 404.88442,344.57776 C 401.55998,346.39108 402.16442,351.22664 405.18664,353.3422 C 408.51108,355.75996 411.23108,356.06218 413.64886,356.06218 C 416.06664,356.06218 418.48442,356.66664 414.85774,358.78218 C 409.71998,362.10664 405.48886,360.89774 403.97776,363.61774 C 402.16442,368.15108 405.79108,371.77774 410.62664,371.47552 C 416.67108,370.87106 414.55552,365.12886 421.50664,358.78218 C 425.43552,364.82662 420.29774,368.75552 423.01774,371.1733 C 426.03996,373.28884 430.87552,372.07996 432.0844,368.75552 C 434.50218,363.31552 428.15552,360.2933 430.27106,356.36442 C 432.68884,352.1333 435.71106,353.94664 436.61774,351.52886 C 442.35994,353.64442 439.63996,358.47996 442.66218,359.99108 C 445.6844,361.50218 449.9155,360.2933 450.21772,356.36442 C 450.21772,352.1333 446.28884,349.4133 443.56884,348.20442 C 447.49772,344.27554 455.05328,337.0222 457.77328,334.3022 z"/>
		<path d="M 515.49768,334.3022 C 515.7999,332.7911 515.7999,331.5822 516.10212,330.0711 C 518.21768,329.76888 520.33322,328.86222 522.14656,327.95554 C 529.09766,334.3022 539.97766,347.59998 546.62654,350.92442 C 547.83542,351.52886 550.55542,351.22664 552.9732,348.80886 C 555.6932,346.39108 565.06208,342.76442 568.38652,344.57776 C 571.40874,346.39108 571.10652,351.22664 568.0843,353.3422 C 564.75986,355.75996 562.03986,356.06218 559.62208,356.06218 C 557.2043,356.06218 554.78654,356.66664 558.4132,358.78218 C 563.55098,362.10664 567.78208,360.89774 568.99096,363.61774 C 571.10652,368.15108 567.47986,371.77774 562.6443,371.47552 C 556.29764,370.87106 558.71542,365.12886 551.76432,358.78218 C 547.5332,364.82662 552.9732,368.75552 549.95098,371.1733 C 547.23098,373.28884 542.39544,372.07996 540.88432,368.75552 C 538.76876,363.31552 545.11542,360.2933 542.99988,356.36442 C 540.5821,352.1333 537.55988,353.94664 536.65322,351.52886 C 530.911,353.64442 533.631,358.47996 530.60878,359.99108 C 527.58656,361.50218 523.05322,360.2933 523.05322,356.36442 C 522.751,352.1333 526.9821,349.4133 529.7021,348.20442 C 525.77322,344.27554 518.21768,337.0222 515.49768,334.3022 z"/>
		<path d="M 396.11998,358.47996 C 394.30666,353.03996 396.4222,347.29776 401.25776,345.78664 C 406.0933,344.27554 406.69776,349.71552 405.18664,352.1333 C 403.37332,354.55108 397.6311,351.83108 396.11998,358.47996 z"/>
		<path d="M 407.3022,379.33328 C 401.55998,378.1244 398.83998,367.2444 402.76886,364.82662 C 406.69776,362.40886 410.0222,366.03552 409.71998,369.05774 C 409.71998,372.07996 405.79108,372.07996 407.3022,379.33328 z"/>
		<path d="M 436.3155,376.31106 C 430.27106,380.8444 422.4133,376.00884 423.62218,371.47552 C 424.83108,367.84884 429.96884,367.84884 431.47996,369.35996 C 433.59552,371.47552 430.5733,375.10218 436.3155,376.31106 z"/>
		<path d="M 446.59106,368.4533 C 450.51994,366.63996 452.93772,360.59552 450.82216,357.87552 C 448.70662,355.15552 443.87106,356.66664 443.87106,360.59552 C 444.17328,364.22218 448.10216,364.82662 446.59106,368.4533 z"/>
		<path d="M 577.15096,358.47996 C 578.9643,353.03996 576.84874,347.29776 572.01318,345.78664 C 567.17764,344.27554 566.5732,349.71552 568.0843,352.1333 C 569.89764,354.55108 575.33762,351.83108 577.15096,358.47996 z"/>
		<path d="M 565.66652,379.33328 C 571.71096,378.1244 574.43096,367.2444 570.50208,364.82662 C 566.27096,362.40886 563.24874,366.03552 563.24874,369.05774 C 563.55098,372.07996 567.47986,372.07996 565.66652,379.33328 z"/>
		<path d="M 536.95544,376.31106 C 542.99988,380.8444 550.85764,376.00884 549.64876,371.47552 C 548.43988,367.84884 543.3021,367.84884 541.79098,369.35996 C 539.67544,371.47552 542.69766,375.10218 536.95544,376.31106 z"/>
		<path d="M 526.37766,368.4533 C 522.751,366.63996 520.33322,360.59552 522.44878,357.87552 C 524.56434,355.15552 529.39988,356.66664 529.09766,360.59552 C 529.09766,364.22218 525.16878,364.82662 526.37766,368.4533 z"/>
		<path d="M 477.71992,201.62674 C 469.55992,198.30231 467.14216,204.9512 450.21772,198.90675 C 453.54216,204.64896 464.42216,211.60008 475.60436,208.27564 C 483.76436,206.16008 482.25326,203.44008 477.71992,201.62674 z"/>
		<path d="M 458.98216,196.48897 C 457.16882,189.53787 458.37772,182.58676 463.81772,180.16899 C 469.2577,177.75121 471.07104,180.47121 474.6977,184.09787 C 481.04436,191.04898 482.8577,198.00008 483.15992,203.44008 C 483.15992,207.36896 484.67102,210.39118 486.48436,212.50674 C 477.4177,209.48452 466.23548,218.24896 460.49326,207.06674 C 468.35104,209.78674 470.4666,201.62674 476.81326,204.9512 C 473.1866,202.83564 476.20882,197.39564 471.67548,194.37342 C 467.7466,191.65342 461.70216,191.04898 458.98216,196.48897 z"/>
	</g>
	<path d="M 489.50658,186.51565 C 486.48436,186.51565 483.76436,184.09787 482.55548,182.88898 C 481.6488,181.6801 478.32436,181.98232 478.32436,184.09787 C 478.62658,187.42231 484.97326,189.53787 489.50658,186.51565 z" fill="#fff"/>
</svg>