<?xml version="1.0" encoding="UTF-8" standalone="no"?>
<svg
   xmlns:dc="http://purl.org/dc/elements/1.1/"
   xmlns:cc="http://creativecommons.org/ns#"
   xmlns:rdf="http://www.w3.org/1999/02/22-rdf-syntax-ns#"
   xmlns:svg="http://www.w3.org/2000/svg"
   xmlns="http://www.w3.org/2000/svg"
   xmlns:sodipodi="http://sodipodi.sourceforge.net/DTD/sodipodi-0.dtd"
   xmlns:inkscape="http://www.inkscape.org/namespaces/inkscape"
   version="1.1"
   width="1200"
   height="600"
   id="svg10"
   sodipodi:docname="Flag_of_the_Soviet_Union.svg"
   inkscape:version="0.92.2 (5c3e80d, 2017-08-06)">
  <metadata
     id="metadata16">
    <rdf:RDF>
      <cc:Work
         rdf:about="">
        <dc:format>image/svg+xml</dc:format>
        <dc:type
           rdf:resource="http://purl.org/dc/dcmitype/StillImage" />
        <dc:title></dc:title>
      </cc:Work>
    </rdf:RDF>
  </metadata>
  <defs
     id="defs14" />
  <sodipodi:namedview
     pagecolor="#ffffff"
     bordercolor="#666666"
     borderopacity="1"
     objecttolerance="10"
     gridtolerance="10"
     guidetolerance="10"
     inkscape:pageopacity="0"
     inkscape:pageshadow="2"
     inkscape:window-width="1920"
     inkscape:window-height="986"
     id="namedview12"
     showgrid="false"
     inkscape:zoom="0.65333333"
     inkscape:cx="736.55755"
     inkscape:cy="535.49637"
     inkscape:window-x="-11"
     inkscape:window-y="-11"
     inkscape:window-maximized="1"
     inkscape:current-layer="svg10" />
  <path
     fill="#bc0000"
     fill-opacity="1"
     d="M0 0h1200v600H0z"
     id="path2"
     style="fill:#cc0000;fill-opacity:1" />
  <path
     fill="gold"
     d="M191.6 61.4h-27l21.8 16-8.2 25.6L200 87.2l21.8 15.8-8.2-25.6 21.8-16h-27L200 35.6l-8.4 25.8zm8.4-9.8l4.8 14.8h15.4l-12.4 9 4.72 14.7L200 81l-12.52 9.1 4.72-14.7-12.4-9h15.4l4.8-14.8z"
     id="path4"
     style="fill:#ffd700;fill-opacity:1" />
  <path
     d="M166.577 138.645l-33.986 32.37 18.126 18.126 15.651-15.756c30.522 30.98 54.246 55.066 83.72 84.978 8.159 8.46 22.368-3.044 13.268-12.812-31.14-30.347-52.722-52.25-85.165-84.067l19.235-19.348z"
     fill="gold"
     fill-opacity="1"
     fill-rule="evenodd"
     stroke="none"
     id="path6"
     style="fill:#ffd700;fill-opacity:1" />
  <path
     d="M165.43 229.454c60.803 56.406 159.333-45.304 33.413-119.013 93.707 104.11 3.745 136.026-28.829 103.909l-1.64-1.355c-1.33 1.493-2.663 2.984-3.991 4.478-2.524-2.382-6.444-3.082-7.65.991-4.96-.343-7.87 2.405-9.167 7.553-9.224 6.11-19.21 11.472-24.949 21.068-3.28 10.15 3.208 14.564 10.547 13.724 12.031-4.998 15.75-15.801 22.188-24.714 4.552-1.449 8.407-3.397 9.114-7.54"
     fill="gold"
     fill-opacity="1"
     fill-rule="evenodd"
     stroke="none"
     id="path8"
     style="fill:#ffd700;fill-opacity:1" />
</svg>
